<svg width="25" height="25" viewBox="3 2 9 11" fill="none" xmlns="http://www.w3.org/2000/svg">
    <path d="M10.1626 12.7499H3.96785V5.09994H8.09768V4.24994H3.96785C3.58928 4.24994 3.27954 4.63244 3.27954 5.09994V12.7499C3.27954 13.2174 3.58928 13.5999 3.96785 13.5999H10.1626C10.5412 13.5999 10.8509 13.2174 10.8509 12.7499V7.64994H10.1626V12.7499Z" fill="#546E7A"/>
    <path d="M5.34497 6.80005V7.65005H8.09819H8.7865V6.80005H5.34497Z" fill="#546E7A"/>
    <path d="M5.34497 8.50018H8.7865V9.35018H5.34497V8.50018Z" fill="#546E7A"/>
    <path d="M5.34497 10.2H8.7865V11.05H5.34497V10.2Z" fill="#546E7A"/>
    <path d="M10.8508 2.55005H10.1625V4.25005H8.78589V5.10005H10.1625V6.80005H10.8508V5.10005H12.2274V4.25005H10.8508V2.55005Z" fill="#546E7A"/>
</svg>
