<svg width="25" height="25" viewBox="2 1 9 12" fill="none" xmlns="http://www.w3.org/2000/svg">
<path d="M3.58359 11.375C3.33406 11.375 3.12588 11.2916 2.95904 11.1248C2.79221 10.9579 2.70861 10.7497 2.70825 10.5002V2.49979C2.70825 2.25062 2.79185 2.04263 2.95904 1.87579C3.12624 1.70896 3.33442 1.62536 3.58359 1.625H7.85408L10.2916 4.0625V10.5002C10.2916 10.7494 10.2082 10.9576 10.0413 11.1248C9.8745 11.2919 9.66614 11.3754 9.41625 11.375H3.58359ZM7.58325 4.33333V2.16667H3.58359C3.50017 2.16667 3.42361 2.20133 3.35392 2.27067C3.28422 2.34 3.24956 2.41637 3.24992 2.49979V10.5002C3.24992 10.5833 3.28459 10.6596 3.35392 10.7293C3.42325 10.799 3.49963 10.8337 3.58304 10.8333H9.41679C9.49985 10.8333 9.57622 10.7987 9.64592 10.7293C9.71561 10.66 9.75028 10.5834 9.74992 10.4997V4.33333H7.58325Z" fill="#546E7A"/>
</svg>
